<svg xmlns="http://www.w3.org/2000/svg" xmlns:xlink="http://www.w3.org/1999/xlink" id="&#x56FE;&#x5C42;_1" x="0px" y="0px" width="200px" height="60px" viewBox="1150 1220 200 60" xml:space="preserve"><g>	<path fill="#2767B0" d="M1234.918,1235.103c0-8.349,6.753-15.103,15.102-15.103c8.308,0,15.103,6.753,15.103,15.103  c0,8.308-6.795,15.062-15.103,15.062C1241.671,1250.164,1234.918,1243.411,1234.918,1235.103L1234.918,1235.103z   M1283.703,1258.963c-0.08-0.532-0.326-1.187-0.777-2.006l0.982-0.285c0.41,0.654,0.654,1.391,0.777,2.291h3.357v1.023h-8.268  v-1.023H1283.703z M1271.139,1259.986c-0.246-0.123-1.064-0.572-2.17-0.982l0.656-0.531c0.408,0.123,0.654,0.081,1.268,0.367  c0.246-0.041,0.615-0.409,1.064-0.777l-0.041-0.082h-4.338v-0.9h5.689l0.326,0.696c-0.818,0.654-1.514,1.104-1.801,1.515  l0.492,0.328l-0.697,0.367h2.824l-0.041,6.18c0,0.41-0.326,0.615-0.613,0.777c-0.246,0.164-0.533,0.369-1.064,0.328  c0.123-0.123-0.082-0.45-0.449-0.982c0.328,0.041,0.408,0.041,0.613,0.041c0.41,0,0.328,0,0.369-0.041  c0.08-0.082,0.123-0.164,0.123-0.328v-1.104h-2.006v2.046l-0.982,0.164v-2.211h-2.211v2.211h-1.023v-7.08H1271.139  L1271.139,1259.986L1271.139,1259.986z M1280.635,1268.377v-3.602h6.752v3.602H1280.635z M1287.346,1262.811v1.023h-6.711v-1.023  H1287.346z M1287.346,1261.01v1.023h-6.711v-1.023H1287.346z M1278.18,1261.5h-0.043c-0.449,0.615-0.695,1.229-1.268,2.211  l-0.736-1.229c1.268-1.391,2.086-3.15,2.906-5.771l1.391,0.778c-0.082,0.286-0.205,0.041-0.574,0.49c0,0-0.531,1.27-0.613,1.801  v9.087h-1.063V1261.5L1278.18,1261.5z M1286.404,1265.676h-4.828l0.041,1.637h4.789v-1.637H1286.404L1286.404,1265.676z   M1273.35,1264.039v-1.024h-2.006v1.024H1273.35z M1268.152,1264.039h2.209v-1.024h-2.209V1264.039z M1270.361,1261.992v-1.023  h-2.211v1.023H1270.361z M1273.35,1261.992v-1.023h-2.006v1.023H1273.35z M1263.895,1257.899l0.941-0.655  c0.613,0.736,1.188,1.311,1.719,2.128l-0.9,0.614C1265.082,1259.086,1264.631,1258.513,1263.895,1257.899L1263.895,1257.899z   M1263.936,1268.785l-0.941-0.859c0.41-0.328,0.533-0.695,1.678-1.637v-4.297h-1.473v-0.941h2.496v5.32  c0.492,0.532,1.064,0.9,1.719,1.105c0.656,0.205,2.293,0.286,4.012,0.286c0.369,0,1.188-0.081,1.555-0.122l2.539-0.082  c-0.41,0.368-0.41,0.777-0.492,1.187l-5.566,0.081c-0.859,0-2.006-0.203-2.578-0.367c-0.615-0.205-1.146-0.696-1.678-1.27  C1264.959,1267.354,1264.1,1268.418,1263.936,1268.785L1263.936,1268.785z M1257.143,1264.283c0.203-0.9,0.367-1.678,0.367-2.291  v-1.188h-2.006v-1.023h2.006l-0.041-3.151l1.311,0.204c0.49,0,0.205,0.246-0.082,0.41v2.537h2.904  c-0.285,4.502-0.449,7.408-0.49,7.939c-0.082,0.573-0.613,1.064-1.229,1.064c-0.121,0-0.449,0.041-1.023-0.041  c0.043-0.572-0.367-0.941-0.49-1.269c0.164,0,0.654,0.081,0.941,0.122c0.572,0.041,0.613-0.246,0.695-0.736  c0.123-0.45,0.164-1.187,0.246-2.414c0.041-1.188,0.082-2.539,0.164-3.686l-1.842,0.043c0,2.373-0.328,4.297-1.064,5.524  c-0.654,1.187-1.391,2.087-2.701,2.864l-1.311-0.9c0.82-0.203,1.719-0.777,2.17-1.268  C1255.668,1267.025,1256.732,1265.921,1257.143,1264.283L1257.143,1264.283z M1254.359,1266.902  c-0.123-0.285-0.164-0.449-0.287-0.695c-1.801,0.491-1.965,0.449-2.988,0.818l-0.449,0.491l-0.819-1.474  c0.123-0.122,0.491-0.122,0.614-0.285c0.287-0.328,0.328-0.533,0.492-1.188c0.121-0.818,0.408-1.76,0.531-2.619h-1.596v-1.023  h5.403v1.023h-2.742c-0.367,1.596-0.818,3.928-0.818,3.928l2.127-0.531c-0.082-0.123-0.244-1.188-0.572-1.842l0.9-0.328  c0.328,0.819,1.064,2.416,1.352,3.398L1254.359,1266.902L1254.359,1266.902z M1250.266,1259.127v-0.982h4.707v0.982H1250.266z   M1236.555,1260.56h2.169v-1.597c-0.328,0.041-0.819,0.123-1.556,0.246l-0.613-0.941c1.882-0.204,3.11-0.572,4.134-1.105  l0.818,0.941c-0.695,0.328-1.31,0.45-1.719,0.574v1.882h1.719v0.981h-1.719v0.737l0.164-0.124c0.205,0.246,1.023,0.982,1.555,1.72  l-0.614,0.819c-0.45-0.654-0.737-1.351-1.105-1.598v6.1h-1.064v-5.525h-0.042c-0.286,0.654-0.777,1.432-1.473,2.251  c-0.082,0.081-0.164,0.491-0.246,0.573l-0.778-1.023c1.228-1.27,1.965-2.538,2.456-3.562c0.041-0.122,0.041-0.204,0.041-0.368  h-2.128L1236.555,1260.56L1236.555,1260.56L1236.555,1260.56z M1244.25,1258.227h3.52l0.287,0.328  c-0.082,0.286-0.123,0.367-0.123,0.531c-0.737,2.17-2.865,3.48-6.017,4.461l-0.204-0.531l-0.492-0.449  c1.269-0.165,2.169-0.533,2.947-0.941c-0.082-0.451-0.491-0.779-1.104-1.024l0.736-0.614c0.45,0.246,0.9,0.655,1.228,1.188  c0.86-0.654,1.473-1.27,1.842-1.924h-3.07c-0.695,0.654-0.941,1.105-1.473,1.76l-0.941-0.572c0.941-0.941,1.637-2.006,2.251-3.232  c0,0-0.041-0.656,0.491-0.369c0.315,0.146,0.629,0.296,0.941,0.45c0,0.204-0.287,0.163-0.409,0.368  C1244.536,1257.816,1244.291,1258.186,1244.25,1258.227L1244.25,1258.227z M1245.314,1263.424h3.274  c-0.287,1.515-1.064,2.865-2.374,4.012c-1.719,1.432-2.415,1.309-4.625,1.76c-0.45,0.041-0.164-0.696-0.696-1.105  c2.046-0.123,2.906-0.287,3.888-0.941c-0.246-0.449-0.696-0.736-1.228-1.146l0.736-0.655c0.409,0.164,0.941,0.736,1.269,1.352  c1.023-0.982,1.269-1.475,1.719-2.416h-2.701c-0.778,0.697-1.432,1.229-2.537,1.842l-0.246-0.328l-0.655-0.408  c0.982-0.287,3.315-1.924,4.052-3.274l1.146,0.163c0.123,0.246-0.164,0.287-0.45,0.369L1245.314,1263.424L1245.314,1263.424z   M1229.679,1265.594h3.11v0.941h-7.08v-0.941h2.946v-2.374h-2.374v-0.941h2.374v-1.474h-2.783v-0.941h6.712v0.941h-2.906v1.474  h2.578v0.94h-2.578V1265.594L1229.679,1265.594z M1233.486,1258.596h-8.432v9.166h8.432V1258.596L1233.486,1258.596z   M1223.99,1268.826v-11.255h10.477v11.255H1223.99L1223.99,1268.826z M1230.252,1263.916l0.614-0.41  c0.819,0.491,1.187,0.736,1.555,1.311l-0.818,0.49C1231.071,1264.57,1230.866,1264.242,1230.252,1263.916z M1217.565,1264.611  h3.396v-4.176h-3.396V1264.611L1217.565,1264.611z M1213.104,1265.553h-1.105v-6.14h4.502v-1.72c0,0-0.573-0.94-0.123-0.859  c0.778,0.164,0.941,0.123,1.31,0.246c0.286,0.041-0.123,0.614-0.123,0.614v1.72h4.502v6.139h-4.502l0.041,3.93h-1.146l0.041-3.93  H1213.104L1213.104,1265.553L1213.104,1265.553z M1213.063,1264.611h3.438v-4.176h-3.438V1264.611L1213.063,1264.611z   M1287.633,1279.877v-1.063h-4.01v-2.415h4.01v-1.064h-4.01v-2.332h4.01v-1.064h-5.156v7.939H1287.633L1287.633,1279.877z   M1282.107,1279.877v-1.063h-3.479v-6.876h-1.146v7.939H1282.107L1282.107,1279.877L1282.107,1279.877z M1276.379,1279.877v-7.939  h-1.188v7.939H1276.379L1276.379,1279.877z M1269.297,1276.316h2.252c0.408,0,0.941,0,1.309,0.491  c0.164,0.205,0.287,0.491,0.287,0.778c0,0.408-0.287,1.228-1.432,1.228h-2.416V1276.316L1269.297,1276.316L1269.297,1276.316z   M1268.109,1279.877h3.563c2.168,0,2.619-1.514,2.619-2.291c0-1.229-0.859-1.761-1.188-1.924c0.287-0.246,0.736-0.654,0.736-1.515  c0-0.573-0.246-2.21-2.496-2.21h-3.234V1279.877L1268.109,1279.877L1268.109,1279.877z M1269.297,1273.002h2.047  c0.246,0,1.311,0,1.311,1.146c0,0.45-0.164,1.104-1.27,1.104h-2.088V1273.002L1269.297,1273.002z M1266.229,1275.948  c0,1.228-0.941,3.028-2.988,3.028c-2.006,0-2.947-1.76-2.947-3.07c0-1.268,0.941-3.027,2.947-3.027  S1266.229,1274.557,1266.229,1275.948z M1267.375,1275.948c0-2.292-1.762-4.134-4.135-4.134c-2.414,0-4.092,1.965-4.092,4.092  c0,2.17,1.758,4.094,4.092,4.094C1265.613,1280,1267.375,1278.076,1267.375,1275.948L1267.375,1275.948z M1258.369,1279.877v-7.939  h-1.391l-2.865,6.098l-3.029-6.098h-1.35v7.939h1.145v-5.975l2.703,5.975h0.939l2.662-5.975h0.041v5.975H1258.369  L1258.369,1279.877L1258.369,1279.877z M1246.418,1279.877l-3.561-7.939h-1.146l-3.602,7.939h1.351l1.023-2.333h3.561l1.023,2.333  H1246.418L1246.418,1279.877z M1240.975,1276.48l1.269-3.029h0.041l1.31,3.029H1240.975z M1237.906,1279.877v-7.939h-1.228v6.057  h-0.041l-4.871-6.057h-1.104v7.939h1.228v-6.14h0.041l4.871,6.14H1237.906L1237.906,1279.877z M1229.311,1279.877v-7.939h-1.146  v7.939H1229.311L1229.311,1279.877z M1226.978,1279.877v-7.939h-1.187v3.232h-4.502v-3.232h-1.146v7.939h1.146v-3.807h4.502v3.807  H1226.978L1226.978,1279.877L1226.978,1279.877z M1219.652,1273.984c-0.204-0.369-0.491-0.9-1.228-1.393  c-0.859-0.654-1.801-0.777-2.415-0.777c-2.21,0-4.052,1.76-4.052,4.053c0,2.25,1.801,4.133,4.052,4.133  c1.228,0,2.701-0.532,3.602-2.088h-1.433c-0.532,0.656-1.31,1.064-2.169,1.064c-1.555,0-2.905-1.391-2.905-3.07  c0-1.678,1.31-3.027,2.946-3.027c1.269,0,1.965,0.818,2.21,1.105H1219.652L1219.652,1273.984z"></path>	<path fill="#FFFFFF" d="M1241.671,1232.962l1.514,1.228l6.262-5.279c0.573-0.45,1.311-0.696,2.088-0.696s1.514,0.287,2.127,0.737  l7.9,6.425v1.474l-7-5.648c-0.531-0.41-1.145-0.614-1.842-0.614c-0.695,0-1.35,0.246-1.883,0.655l-0.08,0.041l-0.041,0.041  c-0.656,0.573-3.889,3.274-5.526,4.625h0.041c0.327,0.532,1.187,0.614,1.964,0.164h0.041c1.76-1.515,3.357-2.865,3.521-3.029  c0.49-0.409,1.104-0.696,1.76-0.696c0.654,0,1.229,0.246,1.678,0.614l5.033,4.093l1.475,1.228l0.859,0.695l-0.164,0.042  l0.164,0.164c0,0-6.672,5.688-8.35,7.121c-0.818,0.86-2.006,1.392-3.315,1.392c-1.187,0-2.333-0.45-3.152-1.228l-8.308-6.754  v-2.087l8.268,6.712c0.573,0.409,1.228,0.654,2.005,0.654s1.514-0.287,2.088-0.737c0.326-0.287,5.32-4.543,7.57-6.425l-1.473-1.228  l-6.303,5.321c-0.614,0.409-1.31,0.655-2.087,0.655c-0.819,0-1.555-0.246-2.169-0.737l-7.899-6.425v-1.473l7.04,5.688  c0.491,0.369,1.104,0.614,1.801,0.614c0.737,0,1.392-0.246,1.883-0.655l0.082-0.082l0.041-0.041  c0.696-0.573,3.888-3.233,5.524-4.625h-0.041v-0.042l-0.408-0.287c-0.41-0.205-0.982-0.123-1.516,0.164  c-0.039,0-0.039,0.041-0.039,0c-1.762,1.515-3.398,2.864-3.562,3.028c-0.45,0.45-1.105,0.696-1.76,0.696  c-0.614,0-1.187-0.205-1.678-0.573l-4.993-4.174l-0.041,0.041l-1.433-1.187l-0.409-0.45l-0.491-0.409h0.082l-0.082-0.082  c0,0,6.671-5.689,8.349-7.122c0.859-0.859,2.005-1.392,3.315-1.392c1.228,0,2.333,0.491,3.152,1.228l8.309,6.794v2.087  l-8.268-6.752c-0.574-0.409-1.229-0.655-1.965-0.655c-0.771-0.001-1.521,0.259-2.128,0.736  C1248.875,1226.823,1243.922,1231.08,1241.671,1232.962L1241.671,1232.962z"></path></g></svg>