<svg xmlns="http://www.w3.org/2000/svg" xmlns:xlink="http://www.w3.org/1999/xlink" id="&#x56FE;&#x5C42;_1" x="0px" y="0px" width="232px" height="50px" viewBox="0 0 232 50" style="enable-background:new 0 0 232 50;" xml:space="preserve"><style type="text/css">	.st0{fill:#1AD795;}	.st1{fill:url(#SVGID_1_);}	.st2{fill:url(#SVGID_00000007392020343735598740000009424462240006737033_);}	.st3{fill:url(#SVGID_00000075868348422730485970000001090520983623568300_);}	.st4{fill:url(#SVGID_00000167390825335687363730000000408704134418283658_);}	.st5{fill:url(#SVGID_00000150071819099217573170000005664888138001106605_);}	.st6{fill:url(#SVGID_00000075159462727250329730000007309453250375948208_);}	.st7{fill:url(#SVGID_00000044861404057803023700000010674458397028103324_);}	.st8{fill:url(#SVGID_00000035515963067203944170000001418246628587758493_);}	.st9{fill:#298A6C;}	.st10{fill:url(#SVGID_00000108271757677614938830000003857568011572839317_);}	.st11{fill:url(#SVGID_00000039092594641159235830000001094400863289423764_);}	.st12{fill:url(#SVGID_00000144310663683892133110000002216667386008225980_);}	.st13{fill:url(#SVGID_00000143605830400971616860000012786851745820604036_);}	.st14{fill:none;}	.st15{fill:url(#SVGID_00000145035953914298745670000016144691398744385681_);}	.st16{fill:url(#SVGID_00000006680229772634012300000016352992500960149141_);}	.st17{fill:url(#SVGID_00000033337885172914970950000001562690777923970478_);}	.st18{fill:url(#SVGID_00000101816850795140594220000013237259427269104532_);}	.st19{fill:#22DD91;}	.st20{fill:url(#SVGID_00000123406166918738434460000016435968437807078034_);}	.st21{fill:url(#SVGID_00000052811277272332192000000011911693708796466826_);}	.st22{fill:url(#SVGID_00000052809373778438656360000007869361307785940374_);}	.st23{fill:url(#SVGID_00000032629752750778687620000010208611720661675165_);}	.st24{fill:url(#SVGID_00000110444490161799128000000011956200841749547910_);}	.st25{fill:url(#SVGID_00000150799215560747478140000000700118418820481970_);}	.st26{fill:url(#SVGID_00000132046332675238706710000009586367804762417822_);}	.st27{fill:url(#SVGID_00000127738819226049853550000012012858052867935155_);}	.st28{fill:url(#SVGID_00000134217217456545015090000002688721911811997863_);}</style><g>	<path class="st0" d="M52.3,5.9H22.1c-0.1,0-0.3,0-0.4,0c-1.2,0.2-7.1,1.6-10,8L4.5,32.6l-1,3c-0.1,0.2-0.1,0.4-0.1,0.5  c-0.1,1.2-0.1,5.8,5.3,7.3c0.2,0.1,0.4,0.1,0.6,0.1h4.5c0.7,0,1.3-0.3,1.7-0.8l2.2-2.4c1.3-1.5,0.3-3.8-1.7-3.8h0  c-0.3,0-0.5,0-0.8-0.1c-0.9-0.4-2.9-1.5-1.7-4.4c1.6-3.8,5.7-14.9,5.7-14.9s1.5-3.7,5.7-3.8c3.5-0.1,21,0,26.1,0  c0.9,0,1.6-0.5,2-1.2l1.5-2.8C55.1,7.8,54,5.9,52.3,5.9z"></path>	<linearGradient id="SVGID_1_" gradientUnits="userSpaceOnUse" x1="0.4586" y1="24.748" x2="61.6132" y2="24.748">		<stop offset="0" style="stop-color:#035F49"></stop>		<stop offset="8.730159e-02" style="stop-color:#9EFFEE"></stop>		<stop offset="0.1825" style="stop-color:#27F5B0"></stop>		<stop offset="0.3095" style="stop-color:#38FFB9"></stop>		<stop offset="0.5317" style="stop-color:#39FFBB"></stop>		<stop offset="1" style="stop-color:#1FF6AE"></stop>	</linearGradient>	<path class="st1" d="M54,13.3h1.4l6-10.6h-35h-4.2c0,0-7.4,0.3-12.6,8.1L7,17.5L0.9,33.6L0.3,36v3.2c0,0,1.6,8.5,12.1,7.6l0.8-1.3  l-3.9-0.1c0,0-8.3-1.1-7.6-9c0,0,0.2-1.3,0.4-1.9s8.1-21.5,8.1-21.5s4-8.8,13.1-8.8s35.6,0,35.6,0L54,13.3z"></path>			<radialGradient id="SVGID_00000142885819484912701500000012814953817383481487_" cx="37.8564" cy="33.6792" r="8.6332" gradientTransform="matrix(-0.7922 -0.6102 0.7636 -0.9913 42.1296 90.1681)" gradientUnits="userSpaceOnUse">		<stop offset="0.6768" style="stop-color:#05A16B"></stop>		<stop offset="0.7448" style="stop-color:#17B77F"></stop>		<stop offset="0.9373" style="stop-color:#47F1B3"></stop>	</radialGradient>	<path style="fill:url(#SVGID_00000142885819484912701500000012814953817383481487_);" d="M37.3,24.6h15l-5.1,13.5  c0,0-2.9,4.5-9.6,5.4H22l7.5-7.2h8.4c0,0,3.3-0.9,4.3-6.4h-1.6v-0.2c0,0,0.7,0,0.1-1.3c0,0-2.8-2.8-3.5-3.2v-0.6H37.3z"></path>			<linearGradient id="SVGID_00000042002566182689734520000013697113355061949315_" gradientUnits="userSpaceOnUse" x1="19.1957" y1="35.7184" x2="55.4541" y2="35.7184">		<stop offset="0.6027" style="stop-color:#017F58"></stop>		<stop offset="0.7611" style="stop-color:#23B785"></stop>		<stop offset="0.9373" style="stop-color:#47F1B3"></stop>	</linearGradient>	<path style="fill:url(#SVGID_00000042002566182689734520000013697113355061949315_);" d="M54,24.6l-3.6,10.2c0,0-1.7,9.1-12.6,10.6  H20.1l-0.9,1.5H38c0,0,8.6-0.9,12.1-7.9c0,0,4.7-11.8,5.4-14.3H54z"></path>			<linearGradient id="SVGID_00000091695936600002293320000012994384139964670361_" gradientUnits="userSpaceOnUse" x1="25.722" y1="17.6853" x2="32.243" y2="17.6853">		<stop offset="0.1437" style="stop-color:#47F1B3"></stop>		<stop offset="0.3413" style="stop-color:#04845C"></stop>		<stop offset="0.989" style="stop-color:#017F58"></stop>	</linearGradient>	<ellipse style="fill:url(#SVGID_00000091695936600002293320000012994384139964670361_);" cx="29" cy="17.7" rx="3.3" ry="0.2"></ellipse>			<linearGradient id="SVGID_00000034073432309121502820000014017676867930375358_" gradientUnits="userSpaceOnUse" x1="25.1181" y1="18.7341" x2="31.6392" y2="18.7341">		<stop offset="0.1437" style="stop-color:#47F1B3"></stop>		<stop offset="0.3413" style="stop-color:#04845C"></stop>		<stop offset="0.989" style="stop-color:#017F58"></stop>	</linearGradient>	<ellipse style="fill:url(#SVGID_00000034073432309121502820000014017676867930375358_);" cx="28.4" cy="18.7" rx="3.3" ry="0.2"></ellipse>			<linearGradient id="SVGID_00000024681531049184226590000005080939107951443093_" gradientUnits="userSpaceOnUse" x1="21.8576" y1="20.122" x2="29.1059" y2="20.122">		<stop offset="0.8685" style="stop-color:#47F1B3"></stop>		<stop offset="0.989" style="stop-color:#017F58"></stop>	</linearGradient>	<ellipse style="fill:url(#SVGID_00000024681531049184226590000005080939107951443093_);" cx="25.5" cy="20.1" rx="3.6" ry="0.2"></ellipse>			<linearGradient id="SVGID_00000093157451022365084640000008739591550376205222_" gradientUnits="userSpaceOnUse" x1="23.0628" y1="22.9607" x2="35.2378" y2="22.9607">		<stop offset="0.8685" style="stop-color:#47F1B3"></stop>		<stop offset="0.989" style="stop-color:#017F58"></stop>	</linearGradient>	<ellipse style="fill:url(#SVGID_00000093157451022365084640000008739591550376205222_);" cx="29.2" cy="23" rx="6.1" ry="0.5"></ellipse>			<linearGradient id="SVGID_00000088117397270824917820000017040018155641426086_" gradientUnits="userSpaceOnUse" x1="19.9238" y1="23.8659" x2="34.765" y2="23.8659">		<stop offset="0.8685" style="stop-color:#47F1B3"></stop>		<stop offset="0.989" style="stop-color:#017F58"></stop>	</linearGradient>	<ellipse style="fill:url(#SVGID_00000088117397270824917820000017040018155641426086_);" cx="27.3" cy="23.9" rx="7.4" ry="0.3"></ellipse>	<ellipse class="st9" cx="28.4" cy="26.2" rx="2.9" ry="0.2"></ellipse>	<ellipse class="st9" cx="26.1" cy="27.3" rx="6" ry="0.2"></ellipse>			<linearGradient id="SVGID_00000147184536145250200470000008904437479088777375_" gradientUnits="userSpaceOnUse" x1="20.0152" y1="29.969" x2="29.525" y2="29.969">		<stop offset="0.8685" style="stop-color:#47F1B3"></stop>		<stop offset="0.989" style="stop-color:#017F58"></stop>	</linearGradient>	<ellipse style="fill:url(#SVGID_00000147184536145250200470000008904437479088777375_);" cx="24.8" cy="30" rx="4.8" ry="0.3"></ellipse>			<linearGradient id="SVGID_00000018202044649342426670000013453922969698749059_" gradientUnits="userSpaceOnUse" x1="18.292" y1="33.0756" x2="27.1639" y2="33.0756">		<stop offset="0.8685" style="stop-color:#47F1B3"></stop>		<stop offset="0.989" style="stop-color:#017F58"></stop>	</linearGradient>	<ellipse style="fill:url(#SVGID_00000018202044649342426670000013453922969698749059_);" cx="22.7" cy="33.1" rx="4.4" ry="0.4"></ellipse>			<linearGradient id="SVGID_00000131367309149307708600000001360122876597154237_" gradientUnits="userSpaceOnUse" x1="18.557" y1="33.6821" x2="27.1639" y2="33.6821">		<stop offset="0.8685" style="stop-color:#47F1B3"></stop>		<stop offset="0.989" style="stop-color:#017F58"></stop>	</linearGradient>	<ellipse style="fill:url(#SVGID_00000131367309149307708600000001360122876597154237_);" cx="22.9" cy="33.7" rx="4.3" ry="0.2"></ellipse>	<ellipse class="st9" cx="33.2" cy="21.1" rx="3.1" ry="0.4"></ellipse>			<linearGradient id="SVGID_00000020358892111534050520000006679805112836382608_" gradientUnits="userSpaceOnUse" x1="13.3415" y1="31.1373" x2="46.0423" y2="31.1373">		<stop offset="0.6323" style="stop-color:#28F7A9"></stop>		<stop offset="1" style="stop-color:#017F58"></stop>	</linearGradient>	<path style="fill:url(#SVGID_00000020358892111534050520000006679805112836382608_);" d="M39.5,18c0.2,0.1,0.3,0,0.4-0.2  c0.2-0.7,0.7-2.1,2.1-1.9c1.8,0.2,1.7,1.7,1.7,1.7s0,1.2-1,2.1c-0.1,0.1-0.1,0.1-0.2,0.1h-0.8c-0.1,0-0.2,0-0.2-0.1  c-0.1-0.1-0.2-0.2-0.4,0.1h-0.1l0,0.7c0,0,0,0,0,0l0.4,2c0,0.1,0.1,0.2,0.2,0.2c0.1,0.1,0.4,0.1,0.9-0.1c0.9-0.3,2-0.8,2.6-1.7  c0,0,0-0.1,0.1-0.1c0.2-0.1,1-0.7,1.1,0.6c0,0,0.1,1-2.1,2l-2.3,1.1c0,0-0.1,0-0.1,0h-1.5c-0.1,0-0.2-0.1-0.3-0.2l-0.6-1.5  c0,0-0.2-0.4-0.5,0c-0.3,0.3-2,2-2.7,2.7c-0.1,0.1-0.1,0.4,0.1,0.5c0.8,0.4,2.8,1.4,4,2.6c0,0,0.8,0.7-0.7,1.8c0,0,0,0-0.1,0  c-0.5,0.2-7.7,3.2-7.8,3.2c-0.1,0-0.9,0-0.9,0s-0.7-0.1,2.2-2c1.9-1.2,3-1.9,3.5-2.2c0.2-0.1,0.2-0.5-0.1-0.5c0,0,0,0,0,0  c-0.4-0.1-2.6-0.3-3.2-0.3c-0.1,0-0.2,0-0.2,0.1l-4,4.3c0,0,0,0,0,0l-4.5,3.9l-5.3,4.3c0,0,0,0,0,0l-5.1,4.8  c-0.1,0.1-0.2,0.1-0.3,0.1c-0.1,0-0.2-0.1,0-0.3c0.3-0.4,2.8-3.2,2.8-3.2l1.8-2.2c0,0,0-0.1,0.1-0.1l0.3-1c0-0.1,0.1-0.2,0.2-0.2  l0.7-0.2c0.1,0,0.1,0,0.1-0.1l4.6-5.1l4.4-5.3c0,0,0,0,0,0l3.3-4.5c0,0,0,0,0,0c0.2-0.2,3.6-4.3,3.9-4.5c0.3-0.2-2.1-0.9-2.1-0.9  s-1.2-0.4-2,0.2c-0.7,0.5-2.7,1.7-3.1,1.9c0,0-0.1,0-0.1,0h-0.2c-0.2,0-0.4-0.3-0.2-0.5c0.6-0.8,2.1-2.6,3.9-3.6c0,0,0.1,0,0.1,0h3  C35,17,36.6,16.9,39.5,18z"></path>	<polygon class="st14" points="69.7,4.1 69.3,5.1 201.6,5.1 204.3,2.3 187.8,2.3 185.5,4.1  "></polygon>			<linearGradient id="SVGID_00000178913806327937439680000012744045566420777401_" gradientUnits="userSpaceOnUse" x1="69.2884" y1="3.7048" x2="204.2724" y2="3.7048">		<stop offset="0.1164" style="stop-color:#017F58"></stop>		<stop offset="0.6323" style="stop-color:#28F7A9"></stop>		<stop offset="0.9656" style="stop-color:#04875E"></stop>	</linearGradient>	<polygon style="fill:url(#SVGID_00000178913806327937439680000012744045566420777401_);" points="69.7,4.1 69.3,5.1 201.6,5.1   204.3,2.3 187.8,2.3 185.5,4.1  "></polygon>			<linearGradient id="SVGID_00000101802078310547897940000016255137685784379023_" gradientUnits="userSpaceOnUse" x1="203.8603" y1="3.1796" x2="214.0559" y2="3.1796">		<stop offset="7.407407e-02" style="stop-color:#017F58"></stop>		<stop offset="0.4788" style="stop-color:#28F7A9"></stop>	</linearGradient>	<polygon style="fill:url(#SVGID_00000101802078310547897940000016255137685784379023_);" points="209.1,0.1 203.9,6.3 208.4,6.3   214.1,0.1  "></polygon>			<linearGradient id="SVGID_00000065766310713207869410000000976252764655397522_" gradientUnits="userSpaceOnUse" x1="212.6589" y1="3.1796" x2="222.8544" y2="3.1796">		<stop offset="7.407407e-02" style="stop-color:#017F58"></stop>		<stop offset="0.4788" style="stop-color:#28F7A9"></stop>	</linearGradient>	<polygon style="fill:url(#SVGID_00000065766310713207869410000000976252764655397522_);" points="217.9,0.1 212.7,6.3 217.2,6.3   222.9,0.1  "></polygon>			<linearGradient id="SVGID_00000088098328484216899050000008897614817196851388_" gradientUnits="userSpaceOnUse" x1="56.1979" y1="48.0116" x2="201.7257" y2="48.0116">		<stop offset="8.994709e-02" style="stop-color:#017F58"></stop>		<stop offset="0.4788" style="stop-color:#28F7A9"></stop>		<stop offset="0.9444" style="stop-color:#058B60"></stop>	</linearGradient>	<path style="fill:url(#SVGID_00000088098328484216899050000008897614817196851388_);" d="M56.6,46.4l-0.4,1.3  c0,0,129.6,0.1,129.6,0s2.1,1.8,2.1,1.8h13.8l-2.2-3.1H56.6z"></path>	<polygon class="st19" points="201,45.6 204.4,45.6 207.5,50.1 204.4,50.1  "></polygon>			<linearGradient id="SVGID_00000067216623019915955730000017480574287028144554_" gradientUnits="userSpaceOnUse" x1="206.4355" y1="47.784" x2="213.5168" y2="47.784">		<stop offset="8.730159e-02" style="stop-color:#28F7A9"></stop>		<stop offset="0.5423" style="stop-color:#079265"></stop>		<stop offset="0.9444" style="stop-color:#058B60"></stop>	</linearGradient>	<polygon style="fill:url(#SVGID_00000067216623019915955730000017480574287028144554_);" points="206.4,45.5 210.2,45.5   213.5,50.1 210.1,50.1  "></polygon>			<linearGradient id="SVGID_00000072271039707535925190000001649267512698855046_" gradientUnits="userSpaceOnUse" x1="80.3738" y1="18.0218" x2="54.4709" y2="32.9768">		<stop offset="0" style="stop-color:#FFFFFF"></stop>		<stop offset="1" style="stop-color:#DFE4F0"></stop>	</linearGradient>	<path style="fill:url(#SVGID_00000072271039707535925190000001649267512698855046_);" d="M59.3,17.9l-4.5,12.5c0,0-1.4,4.7,3,5.3  H70c0,0,3.1-0.2,5.3-3.9l5-13.9h-5.5l-3.7,10.5c0,0-0.7,3.1-3.4,2.9h-6.5c0,0-1.5-0.1-0.7-2.2c0.8-2.1,4-11.1,4-11.1H59.3z"></path>			<linearGradient id="SVGID_00000024711613300616246710000001239118597210967180_" gradientUnits="userSpaceOnUse" x1="75.7125" y1="30.4943" x2="103.156" y2="30.4943">		<stop offset="0" style="stop-color:#FFFFFF"></stop>		<stop offset="1" style="stop-color:#DFE4F0"></stop>	</linearGradient>	<path style="fill:url(#SVGID_00000024711613300616246710000001239118597210967180_);" d="M97.6,18.2l-0.7,1.9c0,0-0.1,0.4-0.2,0.2  c0,0-0.2-1.6-1.6-2.1h-8c0,0-3.8,0.5-5.9,4.1l-2,4.8l-1.1,3.4c0,0-1.2,5,3.9,5.3l7.4,0.1c0,0,1.8-0.4,2.5-1.4c0,0-0.4,1-0.7,1.8  c-0.4,0.8-1,2.2-2.8,2.3c-1.8,0.1-10.9,0-10.9,0l-1.8,4.3h14.1c0,0,5.6-0.9,7.4-7.7l5.9-17H97.6z M95.3,24.1  c-0.4,1.5-1.9,5.5-1.9,5.5s-0.8,1.9-2.5,1.9c-1.8,0-6.1,0-6.1,0c0,0-1.3-0.2-1-1.7c0.2-1.5,1.8-5.3,1.8-5.3s0.9-1.8,2.9-2.1h5.5  C94.1,22.4,95.7,22.6,95.3,24.1z"></path>			<linearGradient id="SVGID_00000137124757681598574190000008092413903164030623_" gradientUnits="userSpaceOnUse" x1="85.5804" y1="27.0905" x2="136.7112" y2="27.0905">		<stop offset="0" style="stop-color:#FFFFFF"></stop>		<stop offset="1" style="stop-color:#DFE4F0"></stop>	</linearGradient>	<path style="fill:url(#SVGID_00000137124757681598574190000008092413903164030623_);" d="M122.2,21.2c-0.5-2.8-3.4-3-3.4-3h-9.1  c-2.4,0.4-3.8,1.5-5.1,3c-1.3,1.4-3.9,9.6-3.9,9.6c-0.8,4.9,3.3,5.2,3.3,5.2l12.7,0.1l2.1-4.4c0,0-9.6,0.1-11.2,0  c-1.6-0.1-1.1-2-1.1-2l0.4-1.1h13.2c0,0,1.4-3.7,1.9-5C122.4,22.1,122.2,21.2,122.2,21.2z M116.5,23.2c-0.2,0.9-0.5,1.7-0.5,1.7  h-7.8c0,0,0.4-2.2,2.4-2.8l5.1,0.1C115.7,22.2,116.7,22.3,116.5,23.2z"></path>			<linearGradient id="SVGID_00000134948598390635216420000003985521555352431243_" gradientUnits="userSpaceOnUse" x1="106.2496" y1="27.0905" x2="156.8084" y2="27.0905">		<stop offset="0" style="stop-color:#FFFFFF"></stop>		<stop offset="1" style="stop-color:#DFE4F0"></stop>	</linearGradient>	<path style="fill:url(#SVGID_00000134948598390635216420000003985521555352431243_);" d="M142.5,21.2c-0.5-2.8-3.4-3-3.4-3h-9  c-2.3,0.4-3.7,1.5-5,3c-1.3,1.4-3.9,9.6-3.9,9.6c-0.8,4.9,3.2,5.2,3.2,5.2L137,36l2.1-4.4c0,0-9.5,0.1-11.1,0c-1.6-0.1-1.1-2-1.1-2  l0.4-1.1h13.1c0,0,1.4-3.7,1.8-5C142.6,22.1,142.5,21.2,142.5,21.2z M136.8,23.2c-0.2,0.9-0.5,1.7-0.5,1.7h-7.8  c0,0,0.4-2.2,2.4-2.8l5,0.1C136,22.2,137,22.3,136.8,23.2z"></path>			<linearGradient id="SVGID_00000114779707069383944540000013610816683088884922_" gradientUnits="userSpaceOnUse" x1="139.795" y1="27.0905" x2="158.2047" y2="27.0905">		<stop offset="0" style="stop-color:#FFFFFF"></stop>		<stop offset="1" style="stop-color:#DFE4F0"></stop>	</linearGradient>	<path style="fill:url(#SVGID_00000114779707069383944540000013610816683088884922_);" d="M146.1,18.2L139.8,36h5.3l3.7-10.1  c0,0,1-2.5,3.8-2.9h3.6l2-4.9h-3.7c0,0-1.5,0.1-2.5,1.1c-1,1-1.7,1.7-1.7,1.7l1.1-2.8H146.1z"></path>			<linearGradient id="SVGID_00000086661655958448043880000017583171868819528581_" gradientUnits="userSpaceOnUse" x1="155.1196" y1="24.6554" x2="181.3263" y2="24.6554">		<stop offset="0" style="stop-color:#FFFFFF"></stop>		<stop offset="1" style="stop-color:#DFE4F0"></stop>	</linearGradient>	<path style="fill:url(#SVGID_00000086661655958448043880000017583171868819528581_);" d="M166.3,13.2h15l-2,4.9h-12.7  c0,0-0.6-0.2-1.1,0.9s-1.5,3.2-1.5,3.2h13.4l-1.9,4.9H162l-0.7,2.1c0,0-0.8,2,1.2,2s11.9,0,11.9,0l-2,4.8l-14-0.2  c0,0-4.3-0.2-3.1-5.9l4.3-11.3C159.6,18.8,161.5,14.1,166.3,13.2z"></path>			<linearGradient id="SVGID_00000132794347799560051670000014229750532432809384_" gradientUnits="userSpaceOnUse" x1="174.8957" y1="24.6554" x2="209.1624" y2="24.6554">		<stop offset="0" style="stop-color:#FFFFFF"></stop>		<stop offset="1" style="stop-color:#DFE4F0"></stop>	</linearGradient>	<polygon style="fill:url(#SVGID_00000132794347799560051670000014229750532432809384_);" points="174.9,36.1 183.6,13.2   190.1,13.2 190.9,28.2 196.7,19.9 201.9,13.2 209.2,13.2 200.9,36.1 195.4,36.1 200.7,21.5 190.1,36.1 185.9,36.1 185.7,21.6   180.4,36.1  "></polygon>			<linearGradient id="SVGID_00000083077136667246259710000011828698321627206804_" gradientUnits="userSpaceOnUse" x1="203.3216" y1="24.6554" x2="230.8043" y2="24.6554">		<stop offset="0" style="stop-color:#FFFFFF"></stop>		<stop offset="1" style="stop-color:#DFE4F0"></stop>	</linearGradient>	<path style="fill:url(#SVGID_00000083077136667246259710000011828698321627206804_);" d="M230.8,13.2h-14.6c0,0-5.3,0.4-7.4,6.3  l-0.8,2.3c0,0-1.1,4.4,3.7,5.2h8.3c0,0,1.4,0.1,0.9,1.4s-0.8,2.2-1.9,2.7h-13.8l-2,4.9h16.5c0,0,4.6-0.7,6.4-6l1-2.9  c0,0,0.8-3.9-3.2-4.8h-9.3c0,0-1.4-0.6-0.2-2.6s2.8-1.6,2.8-1.6s11.5,0,11.5,0L230.8,13.2z"></path></g></svg>